<svg width="80" height="40" viewBox="0 0 80 40" fill="none" xmlns="http://www.w3.org/2000/svg">
<g filter="url(#filter0_i_15_559)">
<rect y="1" width="80" height="36" rx="18" fill="#EFEFEF"/>
</g>
<g filter="url(#filter1_d_15_559)">
<ellipse cx="18.0005" cy="19" rx="14" ry="14" fill="url(#paint0_linear_15_559)"/>
</g>
<mask id="mask0_15_559" style="mask-type:alpha" maskUnits="userSpaceOnUse" x="44" y="7" width="24" height="24">
<rect x="44" y="7" width="24" height="24" fill="#D9D9D9"/>
</mask>
<g mask="url(#mask0_15_559)">
<path d="M55.9998 12.2115C55.7871 12.2115 55.609 12.1397 55.4655 11.996C55.3219 11.8522 55.25 11.674 55.25 11.4615V9.26929C55.25 9.05679 55.322 8.8787 55.4658 8.73504C55.6096 8.5912 55.7878 8.51929 56.0003 8.51929C56.213 8.51929 56.391 8.5912 56.5345 8.73504C56.6782 8.8787 56.75 9.05679 56.75 9.26929V11.4615C56.75 11.674 56.6781 11.8522 56.5343 11.996C56.3905 12.1397 56.2123 12.2115 55.9998 12.2115ZM60.7963 14.2038C60.6578 14.0655 60.5901 13.894 60.5933 13.6895C60.5965 13.485 60.6673 13.3052 60.8058 13.15L62.3308 11.5905C62.4813 11.4354 62.66 11.3578 62.8668 11.3578C63.0736 11.3578 63.2553 11.436 63.4118 11.5925C63.5553 11.736 63.627 11.911 63.627 12.1173C63.627 12.3238 63.5545 12.4995 63.4095 12.6443L61.85 14.2038C61.7052 14.3488 61.5295 14.4213 61.323 14.4213C61.1167 14.4213 60.9411 14.3488 60.7963 14.2038ZM63.5385 19.75C63.326 19.75 63.1479 19.6781 63.004 19.5343C62.8604 19.3905 62.7885 19.2123 62.7885 18.9998C62.7885 18.7871 62.8604 18.609 63.004 18.4655C63.1479 18.3219 63.326 18.25 63.5385 18.25H65.7308C65.9433 18.25 66.1214 18.322 66.265 18.4658C66.4089 18.6096 66.4808 18.7878 66.4808 19.0003C66.4808 19.213 66.4089 19.391 66.265 19.5345C66.1214 19.6782 65.9433 19.75 65.7308 19.75H63.5385ZM55.9998 29.4808C55.7871 29.4808 55.609 29.4089 55.4655 29.265C55.3219 29.1214 55.25 28.9433 55.25 28.7308V26.548C55.25 26.3355 55.322 26.1575 55.4658 26.0138C55.6096 25.87 55.7878 25.798 56.0003 25.798C56.213 25.798 56.391 25.87 56.5345 26.0138C56.6782 26.1575 56.75 26.3355 56.75 26.548V28.7308C56.75 28.9433 56.6781 29.1214 56.5343 29.265C56.3905 29.4089 56.2123 29.4808 55.9998 29.4808ZM50.1598 14.2038L48.5905 12.6693C48.4354 12.5195 48.3578 12.3384 48.3578 12.126C48.3578 11.9139 48.4354 11.7354 48.5905 11.5905C48.7354 11.452 48.9131 11.3828 49.1238 11.3828C49.3345 11.3828 49.508 11.452 49.6443 11.5905L51.2135 13.1598C51.352 13.2961 51.4213 13.4696 51.4213 13.6803C51.4213 13.891 51.3527 14.0655 51.2155 14.2038C51.0659 14.3423 50.8913 14.4115 50.6918 14.4115C50.4921 14.4115 50.3148 14.3423 50.1598 14.2038ZM62.3405 26.4095L60.8058 24.85C60.6673 24.6949 60.5965 24.515 60.5933 24.3105C60.5901 24.106 60.6571 23.9346 60.7943 23.7963C60.9315 23.6578 61.103 23.5885 61.3088 23.5885C61.5145 23.5885 61.6949 23.661 61.85 23.8058L63.4095 25.3405C63.5584 25.4789 63.6302 25.6529 63.625 25.8625C63.6199 26.0722 63.5471 26.2545 63.4068 26.4095C63.2536 26.5647 63.0717 26.6423 62.861 26.6423C62.6502 26.6423 62.4767 26.5647 62.3405 26.4095ZM46.2693 19.75C46.0568 19.75 45.8787 19.6781 45.735 19.5343C45.5912 19.3905 45.5193 19.2123 45.5193 18.9998C45.5193 18.7871 45.5912 18.609 45.735 18.4655C45.8787 18.3219 46.0568 18.25 46.2693 18.25H48.4615C48.674 18.25 48.8522 18.322 48.996 18.4658C49.1397 18.6096 49.2115 18.7878 49.2115 19.0003C49.2115 19.213 49.1397 19.391 48.996 19.5345C48.8522 19.6782 48.674 19.75 48.4615 19.75H46.2693ZM48.6 26.4095C48.4615 26.2647 48.3907 26.0875 48.3875 25.8778C48.3844 25.6683 48.452 25.4943 48.5905 25.3558L50.1405 23.8058C50.2854 23.661 50.4585 23.5885 50.6598 23.5885C50.861 23.5885 51.0391 23.6603 51.1943 23.8038C51.3495 23.9603 51.427 24.1408 51.427 24.3453C51.427 24.5498 51.3495 24.7295 51.1943 24.8845L49.6693 26.4095C49.5141 26.5647 49.3312 26.6423 49.1205 26.6423C48.9099 26.6423 48.7364 26.5647 48.6 26.4095ZM56.0023 24.5C54.4751 24.5 53.1763 23.9655 52.1058 22.8965C51.0353 21.8275 50.5 20.5295 50.5 19.0023C50.5 17.4751 51.0345 16.1763 52.1035 15.1058C53.1725 14.0353 54.4706 13.5 55.9978 13.5C57.525 13.5 58.8238 14.0345 59.8943 15.1035C60.9648 16.1725 61.5 17.4706 61.5 18.9978C61.5 20.525 60.9655 21.8238 59.8965 22.8943C58.8275 23.9648 57.5295 24.5 56.0023 24.5ZM56 23C57.1 23 58.0417 22.6084 58.825 21.825C59.6084 21.0417 60 20.1 60 19C60 17.9 59.6084 16.9584 58.825 16.175C58.0417 15.3917 57.1 15 56 15C54.9 15 53.9584 15.3917 53.175 16.175C52.3917 16.9584 52 17.9 52 19C52 20.1 52.3917 21.0417 53.175 21.825C53.9584 22.6084 54.9 23 56 23Z" fill="#0B3256"/>
</g>
<defs>
<filter id="filter0_i_15_559" x="0" y="1" width="80" height="42" filterUnits="userSpaceOnUse" color-interpolation-filters="sRGB">
<feFlood flood-opacity="0" result="BackgroundImageFix"/>
<feBlend mode="normal" in="SourceGraphic" in2="BackgroundImageFix" result="shape"/>
<feColorMatrix in="SourceAlpha" type="matrix" values="0 0 0 0 0 0 0 0 0 0 0 0 0 0 0 0 0 0 127 0" result="hardAlpha"/>
<feMorphology radius="3" operator="erode" in="SourceAlpha" result="effect1_innerShadow_15_559"/>
<feOffset dy="6"/>
<feGaussianBlur stdDeviation="4"/>
<feComposite in2="hardAlpha" operator="arithmetic" k2="-1" k3="1"/>
<feColorMatrix type="matrix" values="0 0 0 0 0 0 0 0 0 0 0 0 0 0 0 0 0 0 0.1 0"/>
<feBlend mode="normal" in2="shape" result="effect1_innerShadow_15_559"/>
</filter>
<filter id="filter1_d_15_559" x="0.000488281" y="0" width="40" height="40" filterUnits="userSpaceOnUse" color-interpolation-filters="sRGB">
<feFlood flood-opacity="0" result="BackgroundImageFix"/>
<feColorMatrix in="SourceAlpha" type="matrix" values="0 0 0 0 0 0 0 0 0 0 0 0 0 0 0 0 0 0 127 0" result="hardAlpha"/>
<feOffset dx="2" dy="1"/>
<feGaussianBlur stdDeviation="3"/>
<feColorMatrix type="matrix" values="0 0 0 0 0 0 0 0 0 0 0 0 0 0 0 0 0 0 0.25 0"/>
<feBlend mode="normal" in2="BackgroundImageFix" result="effect1_dropShadow_15_559"/>
<feBlend mode="normal" in="SourceGraphic" in2="effect1_dropShadow_15_559" result="shape"/>
</filter>
<linearGradient id="paint0_linear_15_559" x1="18.0005" y1="5" x2="18.0005" y2="33" gradientUnits="userSpaceOnUse">
<stop stop-color="white"/>
<stop offset="1" stop-color="#E8EAEA"/>
</linearGradient>
</defs>
</svg>
