<svg width="80" height="40" viewBox="0 0 80 40" fill="none" xmlns="http://www.w3.org/2000/svg">
<g filter="url(#filter0_i_15_542)">
<rect y="1" width="80" height="36" rx="18" fill="#052B4C"/>
</g>
<g filter="url(#filter1_d_15_542)">
<ellipse cx="61.9993" cy="19" rx="14" ry="14" fill="url(#paint0_linear_15_542)"/>
</g>
<mask id="mask0_15_542" style="mask-type:alpha" maskUnits="userSpaceOnUse" x="12" y="7" width="24" height="24">
<rect x="12" y="7" width="24" height="24" fill="#D9D9D9"/>
</mask>
<g mask="url(#mask0_15_542)">
<path d="M24.0287 27.5001C21.6677 27.5001 19.6608 26.6737 18.008 25.0208C16.3553 23.3682 15.529 21.3613 15.529 19.0001C15.529 16.7373 16.2966 14.7966 17.8317 13.1781C19.3669 11.5594 21.2467 10.6828 23.471 10.5481C23.6147 10.5481 23.7557 10.5533 23.8942 10.5636C24.0326 10.5739 24.1684 10.5893 24.3017 10.6098C23.7916 11.0867 23.3852 11.6629 23.0827 12.3386C22.7801 13.0143 22.6287 13.7348 22.6287 14.5001C22.6287 16.1389 23.2024 17.532 24.3497 18.6793C25.4969 19.8265 26.8899 20.4001 28.5287 20.4001C29.3044 20.4001 30.0275 20.2488 30.698 19.9463C31.3685 19.6437 31.939 19.2373 32.4095 18.7271C32.43 18.8604 32.4454 18.9963 32.4557 19.1348C32.4659 19.2732 32.471 19.4142 32.471 19.5578C32.3428 21.7822 31.4695 23.6619 29.851 25.1971C28.2323 26.7324 26.2916 27.5001 24.0287 27.5001Z" fill="#F2F3F3"/>
</g>
<defs>
<filter id="filter0_i_15_542" x="0" y="1" width="80" height="42" filterUnits="userSpaceOnUse" color-interpolation-filters="sRGB">
<feFlood flood-opacity="0" result="BackgroundImageFix"/>
<feBlend mode="normal" in="SourceGraphic" in2="BackgroundImageFix" result="shape"/>
<feColorMatrix in="SourceAlpha" type="matrix" values="0 0 0 0 0 0 0 0 0 0 0 0 0 0 0 0 0 0 127 0" result="hardAlpha"/>
<feMorphology radius="3" operator="erode" in="SourceAlpha" result="effect1_innerShadow_15_542"/>
<feOffset dy="6"/>
<feGaussianBlur stdDeviation="4"/>
<feComposite in2="hardAlpha" operator="arithmetic" k2="-1" k3="1"/>
<feColorMatrix type="matrix" values="0 0 0 0 0 0 0 0 0 0 0 0 0 0 0 0 0 0 0.1 0"/>
<feBlend mode="normal" in2="shape" result="effect1_innerShadow_15_542"/>
</filter>
<filter id="filter1_d_15_542" x="39.9993" y="0" width="40" height="40" filterUnits="userSpaceOnUse" color-interpolation-filters="sRGB">
<feFlood flood-opacity="0" result="BackgroundImageFix"/>
<feColorMatrix in="SourceAlpha" type="matrix" values="0 0 0 0 0 0 0 0 0 0 0 0 0 0 0 0 0 0 127 0" result="hardAlpha"/>
<feOffset dx="-2" dy="1"/>
<feGaussianBlur stdDeviation="3"/>
<feColorMatrix type="matrix" values="0 0 0 0 0 0 0 0 0 0 0 0 0 0 0 0 0 0 0.25 0"/>
<feBlend mode="normal" in2="BackgroundImageFix" result="effect1_dropShadow_15_542"/>
<feBlend mode="normal" in="SourceGraphic" in2="effect1_dropShadow_15_542" result="shape"/>
</filter>
<linearGradient id="paint0_linear_15_542" x1="61.9993" y1="5" x2="61.9993" y2="33" gradientUnits="userSpaceOnUse">
<stop stop-color="white"/>
<stop offset="1" stop-color="#E8EAEA"/>
</linearGradient>
</defs>
</svg>
