<svg width="626" height="498" viewBox="0 0 626 498" fill="none" xmlns="http://www.w3.org/2000/svg">
<g filter="url(#filter0_f_1_165)">
<path d="M522.503 477.432V329.981H584.137C589.839 329.981 594.852 332.045 599.177 336.174C603.503 340.302 605.665 345.316 605.665 351.214V477.432H577.944V368.318C577.944 365.172 576.863 362.616 574.701 360.65C572.538 358.684 570.08 357.701 567.328 357.701H550.224V477.432H522.503Z" fill="#B4DFFD"/>
<path d="M476.053 477.432V336.468L503.774 329.981V477.432H476.053Z" fill="#B4DFFD"/>
<path d="M395.962 477.432C389.867 477.432 384.756 475.368 380.627 471.239C376.498 466.914 374.434 461.802 374.434 455.904V351.508C374.434 345.61 376.498 340.597 380.627 336.468C384.756 332.143 389.867 329.981 395.962 329.981H436.069C441.967 329.981 446.98 332.143 451.109 336.468C455.237 340.597 457.302 345.61 457.302 351.508V455.904C457.302 461.802 455.237 466.914 451.109 471.239C446.98 475.368 441.967 477.432 436.069 477.432H395.962ZM412.771 449.711H418.964C421.913 449.711 424.469 448.728 426.632 446.762C428.794 444.599 429.876 442.044 429.876 439.095V368.318C429.876 365.369 428.794 362.911 426.632 360.945C424.469 358.783 421.913 357.701 418.964 357.701H412.771C409.822 357.701 407.266 358.783 405.104 360.945C403.138 362.911 402.155 365.369 402.155 368.318V439.095C402.155 442.044 403.138 444.599 405.104 446.762C407.266 448.728 409.822 449.711 412.771 449.711Z" fill="#B4DFFD"/>
<path d="M295.686 477.432C289.591 477.432 284.479 475.368 280.351 471.239C276.222 466.914 274.158 461.802 274.158 455.904V351.508C274.158 345.61 276.222 340.597 280.351 336.468C284.479 332.143 289.591 329.981 295.686 329.981H335.793C341.691 329.981 346.704 332.143 350.833 336.468C355.158 340.597 357.32 345.61 357.32 351.508V383.653H329.6V368.318C329.6 365.369 328.518 362.911 326.356 360.945C324.193 358.783 321.637 357.701 318.688 357.701H312.495C309.546 357.701 306.99 358.783 304.828 360.945C302.862 362.911 301.879 365.369 301.879 368.318V439.095C301.879 442.044 302.862 444.599 304.828 446.762C306.99 448.728 309.546 449.711 312.495 449.711H318.688C321.637 449.711 324.193 448.728 326.356 446.762C328.518 444.599 329.6 442.044 329.6 439.095V423.76H357.32V455.904C357.32 461.802 355.158 466.914 350.833 471.239C346.704 475.368 341.691 477.432 335.793 477.432H295.686Z" fill="#B4DFFD"/>
<path d="M202.448 477.432V262.743L230.169 256.55V329.981H265.262L258.774 357.701H230.169V477.432H202.448Z" fill="#B4DFFD"/>
<path d="M150.61 290.464V262.743L178.33 256.255V283.976L150.61 290.464ZM151.199 477.432V336.468L178.92 329.981V477.432H151.199Z" fill="#B4DFFD"/>
<path d="M20 477.432V270.705H94.9053C101 270.705 106.112 272.868 110.24 277.193C114.369 281.322 116.433 286.237 116.433 291.938V350.624C120.365 352 123.609 354.556 126.165 358.291C128.721 362.027 129.999 366.057 129.999 370.382V455.904C129.999 461.999 127.934 467.11 123.806 471.239C119.677 475.368 114.664 477.432 108.766 477.432H20ZM47.7209 349.444H78.0958C81.0449 349.444 83.6007 348.363 85.7633 346.2C87.9259 344.038 89.0072 341.58 89.0072 338.828V308.748C89.0072 305.799 87.9259 303.341 85.7633 301.375C83.6007 299.212 81.0449 298.131 78.0958 298.131H47.7209V349.444ZM47.7209 450.006H92.2512C95.0036 450.006 97.3628 449.023 99.3288 447.057C101.491 444.894 102.573 442.24 102.573 439.095V387.192C102.573 384.439 101.491 381.982 99.3288 379.819C97.3628 377.656 95.0036 376.575 92.2512 376.575H47.7209V450.006Z" fill="#B4DFFD"/>
<path d="M509.087 300.158C502.992 300.158 497.881 298.093 493.752 293.965C489.623 289.836 487.559 284.724 487.559 278.63V246.485L515.28 252.973V261.82C515.28 264.573 516.361 267.03 518.524 269.193C520.686 271.355 523.144 272.437 525.896 272.437H532.384C535.137 272.437 537.594 271.355 539.757 269.193C541.92 267.03 543.001 264.573 543.001 261.82V226.432H509.087C502.992 226.432 497.881 224.368 493.752 220.239C489.623 216.11 487.559 210.999 487.559 204.904V78.9806H515.28V188.095C515.28 190.847 516.361 193.305 518.524 195.467C520.686 197.63 523.144 198.711 525.896 198.711H543.001V78.9806H570.722V278.63C570.722 284.724 568.657 289.836 564.529 293.965C560.4 298.093 555.387 300.158 549.489 300.158H509.087Z" fill="#B4DFFD"/>
<path d="M386.474 226.432V78.9806H448.109C454.007 78.9806 459.02 81.1432 463.149 85.4684C467.474 89.5971 469.637 94.6104 469.637 100.508V132.653L441.916 126.46V117.613C441.916 114.664 440.835 112.108 438.672 109.945C436.706 107.783 434.249 106.701 431.299 106.701H414.195V226.432H386.474Z" fill="#B4DFFD"/>
<path d="M285.389 226.432V78.9806H347.024C352.922 78.9806 357.935 81.1432 362.064 85.4684C366.389 89.5971 368.552 94.6104 368.552 100.508V132.653L340.831 126.46V117.613C340.831 114.664 339.75 112.108 337.587 109.945C335.621 107.783 333.164 106.701 330.215 106.701H313.11V226.432H285.389Z" fill="#B4DFFD"/>
<path d="M209 226.432C203.102 226.432 197.991 224.368 193.665 220.239C189.537 215.914 187.473 210.802 187.473 204.904V100.214C187.473 94.3155 189.537 89.3022 193.665 85.1735C197.991 81.0449 203.102 78.9806 209 78.9806H249.107C255.202 78.9806 260.314 81.0449 264.442 85.1735C268.571 89.3022 270.635 94.3155 270.635 100.214V145.039C270.635 150.937 268.571 156.049 264.442 160.374C260.314 164.502 255.202 166.567 249.107 166.567H215.193V188.095C215.193 191.044 216.176 193.599 218.142 195.762C220.305 197.728 222.959 198.711 226.105 198.711H264.442L270.635 226.432H209ZM215.193 138.846H232.298C235.247 138.846 237.704 137.863 239.67 135.897C241.833 133.734 242.914 131.178 242.914 128.229V117.318C242.914 114.369 241.833 111.911 239.67 109.945C237.704 107.783 235.247 106.701 232.298 106.701H226.105C222.959 106.701 220.305 107.783 218.142 109.945C216.176 111.911 215.193 114.369 215.193 117.318V138.846Z" fill="#B4DFFD"/>
<path d="M20.5898 226.432V20H48.0158L89.0073 145.923L129.999 20H157.425V226.432H129.999V103.752L102.573 187.8H75.4418L48.0158 103.752V226.432H20.5898Z" fill="#B4DFFD"/>
</g>
<path d="M522.503 477.432V329.981H584.137C589.839 329.981 594.852 332.045 599.177 336.174C603.503 340.302 605.665 345.316 605.665 351.214V477.432H577.944V368.318C577.944 365.172 576.863 362.616 574.701 360.65C572.538 358.684 570.08 357.701 567.328 357.701H550.224V477.432H522.503Z" fill="#DFDFDF"/>
<path d="M476.053 477.432V336.468L503.774 329.981V477.432H476.053Z" fill="#DFDFDF"/>
<path d="M395.962 477.432C389.867 477.432 384.756 475.368 380.627 471.239C376.498 466.914 374.434 461.802 374.434 455.904V351.508C374.434 345.61 376.498 340.597 380.627 336.468C384.756 332.143 389.867 329.981 395.962 329.981H436.069C441.967 329.981 446.98 332.143 451.109 336.468C455.237 340.597 457.302 345.61 457.302 351.508V455.904C457.302 461.802 455.237 466.914 451.109 471.239C446.98 475.368 441.967 477.432 436.069 477.432H395.962ZM412.771 449.711H418.964C421.913 449.711 424.469 448.728 426.632 446.762C428.794 444.599 429.876 442.044 429.876 439.095V368.318C429.876 365.369 428.794 362.911 426.632 360.945C424.469 358.783 421.913 357.701 418.964 357.701H412.771C409.822 357.701 407.266 358.783 405.104 360.945C403.138 362.911 402.155 365.369 402.155 368.318V439.095C402.155 442.044 403.138 444.599 405.104 446.762C407.266 448.728 409.822 449.711 412.771 449.711Z" fill="#DFDFDF"/>
<path d="M295.686 477.432C289.591 477.432 284.479 475.368 280.351 471.239C276.222 466.914 274.158 461.802 274.158 455.904V351.508C274.158 345.61 276.222 340.597 280.351 336.468C284.479 332.143 289.591 329.981 295.686 329.981H335.793C341.691 329.981 346.704 332.143 350.833 336.468C355.158 340.597 357.32 345.61 357.32 351.508V383.653H329.6V368.318C329.6 365.369 328.518 362.911 326.356 360.945C324.193 358.783 321.637 357.701 318.688 357.701H312.495C309.546 357.701 306.99 358.783 304.828 360.945C302.862 362.911 301.879 365.369 301.879 368.318V439.095C301.879 442.044 302.862 444.599 304.828 446.762C306.99 448.728 309.546 449.711 312.495 449.711H318.688C321.637 449.711 324.193 448.728 326.356 446.762C328.518 444.599 329.6 442.044 329.6 439.095V423.76H357.32V455.904C357.32 461.802 355.158 466.914 350.833 471.239C346.704 475.368 341.691 477.432 335.793 477.432H295.686Z" fill="#DFDFDF"/>
<path d="M202.448 477.432V262.743L230.169 256.55V329.981H265.262L258.774 357.701H230.169V477.432H202.448Z" fill="#DFDFDF"/>
<path d="M150.61 290.464V262.743L178.33 256.255V283.976L150.61 290.464ZM151.199 477.432V336.468L178.92 329.981V477.432H151.199Z" fill="#DFDFDF"/>
<path d="M20 477.432V270.705H94.9053C101 270.705 106.112 272.868 110.24 277.193C114.369 281.322 116.433 286.237 116.433 291.938V350.624C120.365 352 123.609 354.556 126.165 358.291C128.721 362.027 129.999 366.057 129.999 370.382V455.904C129.999 461.999 127.934 467.11 123.806 471.239C119.677 475.368 114.664 477.432 108.766 477.432H20ZM47.7209 349.444H78.0958C81.0449 349.444 83.6007 348.363 85.7633 346.2C87.9259 344.038 89.0072 341.58 89.0072 338.828V308.748C89.0072 305.799 87.9259 303.341 85.7633 301.375C83.6007 299.212 81.0449 298.131 78.0958 298.131H47.7209V349.444ZM47.7209 450.006H92.2512C95.0036 450.006 97.3628 449.023 99.3288 447.057C101.491 444.894 102.573 442.24 102.573 439.095V387.192C102.573 384.439 101.491 381.982 99.3288 379.819C97.3628 377.656 95.0036 376.575 92.2512 376.575H47.7209V450.006Z" fill="#DFDFDF"/>
<path d="M509.087 300.158C502.992 300.158 497.881 298.093 493.752 293.965C489.623 289.836 487.559 284.724 487.559 278.63V246.485L515.28 252.973V261.82C515.28 264.573 516.361 267.03 518.524 269.193C520.686 271.355 523.144 272.437 525.896 272.437H532.384C535.137 272.437 537.594 271.355 539.757 269.193C541.92 267.03 543.001 264.573 543.001 261.82V226.432H509.087C502.992 226.432 497.881 224.368 493.752 220.239C489.623 216.11 487.559 210.999 487.559 204.904V78.9806H515.28V188.095C515.28 190.847 516.361 193.305 518.524 195.467C520.686 197.63 523.144 198.711 525.896 198.711H543.001V78.9806H570.722V278.63C570.722 284.724 568.657 289.836 564.529 293.965C560.4 298.093 555.387 300.158 549.489 300.158H509.087Z" fill="#DFDFDF"/>
<path d="M386.474 226.432V78.9806H448.109C454.007 78.9806 459.02 81.1432 463.149 85.4684C467.474 89.5971 469.637 94.6104 469.637 100.508V132.653L441.916 126.46V117.613C441.916 114.664 440.835 112.108 438.672 109.945C436.706 107.783 434.249 106.701 431.299 106.701H414.195V226.432H386.474Z" fill="#DFDFDF"/>
<path d="M285.389 226.432V78.9806H347.024C352.922 78.9806 357.935 81.1432 362.064 85.4684C366.389 89.5971 368.552 94.6104 368.552 100.508V132.653L340.831 126.46V117.613C340.831 114.664 339.75 112.108 337.587 109.945C335.621 107.783 333.164 106.701 330.215 106.701H313.11V226.432H285.389Z" fill="#DFDFDF"/>
<path d="M209 226.432C203.102 226.432 197.991 224.368 193.665 220.239C189.537 215.914 187.473 210.802 187.473 204.904V100.214C187.473 94.3155 189.537 89.3022 193.665 85.1735C197.991 81.0449 203.102 78.9806 209 78.9806H249.107C255.202 78.9806 260.314 81.0449 264.442 85.1735C268.571 89.3022 270.635 94.3155 270.635 100.214V145.039C270.635 150.937 268.571 156.049 264.442 160.374C260.314 164.502 255.202 166.567 249.107 166.567H215.193V188.095C215.193 191.044 216.176 193.599 218.142 195.762C220.305 197.728 222.959 198.711 226.105 198.711H264.442L270.635 226.432H209ZM215.193 138.846H232.298C235.247 138.846 237.704 137.863 239.67 135.897C241.833 133.734 242.914 131.178 242.914 128.229V117.318C242.914 114.369 241.833 111.911 239.67 109.945C237.704 107.783 235.247 106.701 232.298 106.701H226.105C222.959 106.701 220.305 107.783 218.142 109.945C216.176 111.911 215.193 114.369 215.193 117.318V138.846Z" fill="#DFDFDF"/>
<path d="M20.5898 226.432V20H48.0158L89.0073 145.923L129.999 20H157.425V226.432H129.999V103.752L102.573 187.8H75.4418L48.0158 103.752V226.432H20.5898Z" fill="#DFDFDF"/>
<defs>
<filter id="filter0_f_1_165" x="0" y="0" width="625.665" height="497.432" filterUnits="userSpaceOnUse" color-interpolation-filters="sRGB">
<feFlood flood-opacity="0" result="BackgroundImageFix"/>
<feBlend mode="normal" in="SourceGraphic" in2="BackgroundImageFix" result="shape"/>
<feGaussianBlur stdDeviation="10" result="effect1_foregroundBlur_1_165"/>
</filter>
</defs>
</svg>
