<svg width="586" height="458" viewBox="0 0 586 458" fill="none" xmlns="http://www.w3.org/2000/svg">
<path d="M502.503 457.432V309.981H564.137C569.839 309.981 574.852 312.045 579.177 316.174C583.503 320.302 585.665 325.316 585.665 331.214V457.432H557.944V348.318C557.944 345.172 556.863 342.616 554.701 340.65C552.538 338.684 550.08 337.701 547.328 337.701H530.224V457.432H502.503Z" fill="#DFDFDF"/>
<path d="M456.053 457.432V316.468L483.774 309.981V457.432H456.053Z" fill="#DFDFDF"/>
<path d="M375.962 457.432C369.867 457.432 364.756 455.368 360.627 451.239C356.498 446.914 354.434 441.802 354.434 435.904V331.508C354.434 325.61 356.498 320.597 360.627 316.468C364.756 312.143 369.867 309.981 375.962 309.981H416.069C421.967 309.981 426.98 312.143 431.109 316.468C435.237 320.597 437.302 325.61 437.302 331.508V435.904C437.302 441.802 435.237 446.914 431.109 451.239C426.98 455.368 421.967 457.432 416.069 457.432H375.962ZM392.771 429.711H398.964C401.913 429.711 404.469 428.728 406.632 426.762C408.794 424.599 409.876 422.044 409.876 419.095V348.318C409.876 345.369 408.794 342.911 406.632 340.945C404.469 338.783 401.913 337.701 398.964 337.701H392.771C389.822 337.701 387.266 338.783 385.104 340.945C383.138 342.911 382.155 345.369 382.155 348.318V419.095C382.155 422.044 383.138 424.599 385.104 426.762C387.266 428.728 389.822 429.711 392.771 429.711Z" fill="#DFDFDF"/>
<path d="M275.686 457.432C269.591 457.432 264.479 455.368 260.351 451.239C256.222 446.914 254.158 441.802 254.158 435.904V331.508C254.158 325.61 256.222 320.597 260.351 316.468C264.479 312.143 269.591 309.981 275.686 309.981H315.793C321.691 309.981 326.704 312.143 330.833 316.468C335.158 320.597 337.32 325.61 337.32 331.508V363.653H309.6V348.318C309.6 345.369 308.518 342.911 306.356 340.945C304.193 338.783 301.637 337.701 298.688 337.701H292.495C289.546 337.701 286.99 338.783 284.828 340.945C282.862 342.911 281.879 345.369 281.879 348.318V419.095C281.879 422.044 282.862 424.599 284.828 426.762C286.99 428.728 289.546 429.711 292.495 429.711H298.688C301.637 429.711 304.193 428.728 306.356 426.762C308.518 424.599 309.6 422.044 309.6 419.095V403.76H337.32V435.904C337.32 441.802 335.158 446.914 330.833 451.239C326.704 455.368 321.691 457.432 315.793 457.432H275.686Z" fill="#DFDFDF"/>
<path d="M182.448 457.432V242.743L210.169 236.55V309.981H245.262L238.774 337.701H210.169V457.432H182.448Z" fill="#DFDFDF"/>
<path d="M130.61 270.464V242.743L158.33 236.255V263.976L130.61 270.464ZM131.199 457.432V316.468L158.92 309.981V457.432H131.199Z" fill="#DFDFDF"/>
<path d="M0 457.432V250.705H74.9053C81 250.705 86.1116 252.868 90.2402 257.193C94.3689 261.322 96.4332 266.237 96.4332 271.938V330.624C100.365 332 103.609 334.556 106.165 338.291C108.721 342.027 109.999 346.057 109.999 350.382V435.904C109.999 441.999 107.934 447.11 103.806 451.239C99.6771 455.368 94.6638 457.432 88.7657 457.432H0ZM27.7209 329.444H58.0958C61.0449 329.444 63.6007 328.363 65.7633 326.2C67.9259 324.038 69.0072 321.58 69.0072 318.828V288.748C69.0072 285.799 67.9259 283.341 65.7633 281.375C63.6007 279.212 61.0449 278.131 58.0958 278.131H27.7209V329.444ZM27.7209 430.006H72.2512C75.0036 430.006 77.3628 429.023 79.3288 427.057C81.4915 424.894 82.5728 422.24 82.5728 419.095V367.192C82.5728 364.439 81.4915 361.982 79.3288 359.819C77.3628 357.656 75.0036 356.575 72.2512 356.575H27.7209V430.006Z" fill="#DFDFDF"/>
<path d="M489.087 280.158C482.992 280.158 477.881 278.093 473.752 273.965C469.623 269.836 467.559 264.724 467.559 258.63V226.485L495.28 232.973V241.82C495.28 244.573 496.361 247.03 498.524 249.193C500.686 251.355 503.144 252.437 505.896 252.437H512.384C515.137 252.437 517.594 251.355 519.757 249.193C521.92 247.03 523.001 244.573 523.001 241.82V206.432H489.087C482.992 206.432 477.881 204.368 473.752 200.239C469.623 196.11 467.559 190.999 467.559 184.904V58.9806H495.28V168.095C495.28 170.847 496.361 173.305 498.524 175.467C500.686 177.63 503.144 178.711 505.896 178.711H523.001V58.9806H550.722V258.63C550.722 264.724 548.657 269.836 544.529 273.965C540.4 278.093 535.387 280.158 529.489 280.158H489.087Z" fill="#DFDFDF"/>
<path d="M366.474 206.432V58.9806H428.109C434.007 58.9806 439.02 61.1432 443.149 65.4684C447.474 69.5971 449.637 74.6104 449.637 80.5085V112.653L421.916 106.46V97.6128C421.916 94.6638 420.835 92.108 418.672 89.9454C416.706 87.7828 414.249 86.7014 411.299 86.7014H394.195V206.432H366.474Z" fill="#DFDFDF"/>
<path d="M265.389 206.432V58.9806H327.024C332.922 58.9806 337.935 61.1432 342.064 65.4684C346.389 69.5971 348.552 74.6104 348.552 80.5085V112.653L320.831 106.46V97.6128C320.831 94.6638 319.75 92.108 317.587 89.9454C315.621 87.7828 313.164 86.7014 310.215 86.7014H293.11V206.432H265.389Z" fill="#DFDFDF"/>
<path d="M189 206.432C183.102 206.432 177.991 204.368 173.665 200.239C169.537 195.914 167.473 190.802 167.473 184.904V80.2136C167.473 74.3155 169.537 69.3022 173.665 65.1735C177.991 61.0449 183.102 58.9806 189 58.9806H229.107C235.202 58.9806 240.314 61.0449 244.442 65.1735C248.571 69.3022 250.635 74.3155 250.635 80.2136V125.039C250.635 130.937 248.571 136.049 244.442 140.374C240.314 144.502 235.202 146.567 229.107 146.567H195.193V168.095C195.193 171.044 196.176 173.599 198.142 175.762C200.305 177.728 202.959 178.711 206.105 178.711H244.442L250.635 206.432H189ZM195.193 118.846H212.298C215.247 118.846 217.704 117.863 219.67 115.897C221.833 113.734 222.914 111.178 222.914 108.229V97.3179C222.914 94.3689 221.833 91.9114 219.67 89.9454C217.704 87.7828 215.247 86.7014 212.298 86.7014H206.105C202.959 86.7014 200.305 87.7828 198.142 89.9454C196.176 91.9114 195.193 94.3689 195.193 97.3179V118.846Z" fill="#DFDFDF"/>
<path d="M0.589844 206.432V0H28.0158L69.0073 125.923L109.999 0H137.425V206.432H109.999V83.7524L82.5728 167.8H55.4418L28.0158 83.7524V206.432H0.589844Z" fill="#DFDFDF"/>
</svg>
