<svg width="587" height="458" viewBox="0 0 587 458" fill="none" xmlns="http://www.w3.org/2000/svg">
<path d="M503.196 458V310.549H564.831C570.532 310.549 575.546 312.613 579.871 316.742C584.196 320.87 586.359 325.884 586.359 331.782V458H558.638V348.886C558.638 345.74 557.557 343.185 555.394 341.219C553.231 339.253 550.774 338.27 548.021 338.27H530.917V458H503.196Z" fill="#0B3256"/>
<path d="M456.747 458V317.037L484.467 310.549V458H456.747Z" fill="#0B3256"/>
<path d="M376.655 458C370.561 458 365.449 455.936 361.32 451.807C357.192 447.482 355.127 442.37 355.127 436.472V332.077C355.127 326.179 357.192 321.165 361.32 317.037C365.449 312.711 370.561 310.549 376.655 310.549H416.762C422.66 310.549 427.673 312.711 431.802 317.037C435.931 321.165 437.995 326.179 437.995 332.077V436.472C437.995 442.37 435.931 447.482 431.802 451.807C427.673 455.936 422.66 458 416.762 458H376.655ZM393.465 430.279H399.658C402.607 430.279 405.162 429.296 407.325 427.33C409.488 425.168 410.569 422.612 410.569 419.663V348.886C410.569 345.937 409.488 343.48 407.325 341.513C405.162 339.351 402.607 338.27 399.658 338.27H393.465C390.516 338.27 387.96 339.351 385.797 341.513C383.831 343.48 382.848 345.937 382.848 348.886V419.663C382.848 422.612 383.831 425.168 385.797 427.33C387.96 429.296 390.516 430.279 393.465 430.279Z" fill="#0B3256"/>
<path d="M276.379 458C270.284 458 265.173 455.936 261.044 451.807C256.915 447.482 254.851 442.37 254.851 436.472V332.077C254.851 326.179 256.915 321.165 261.044 317.037C265.173 312.711 270.284 310.549 276.379 310.549H316.486C322.384 310.549 327.397 312.711 331.526 317.037C335.851 321.165 338.014 326.179 338.014 332.077V364.221H310.293V348.886C310.293 345.937 309.212 343.48 307.049 341.513C304.886 339.351 302.33 338.27 299.381 338.27H293.188C290.239 338.27 287.684 339.351 285.521 341.513C283.555 343.48 282.572 345.937 282.572 348.886V419.663C282.572 422.612 283.555 425.168 285.521 427.33C287.684 429.296 290.239 430.279 293.188 430.279H299.381C302.33 430.279 304.886 429.296 307.049 427.33C309.212 425.168 310.293 422.612 310.293 419.663V404.328H338.014V436.472C338.014 442.37 335.851 447.482 331.526 451.807C327.397 455.936 322.384 458 316.486 458H276.379Z" fill="#0B3256"/>
<path d="M183.141 458V243.311L210.862 237.118V310.549H245.956L239.468 338.27H210.862V458H183.141Z" fill="#0B3256"/>
<path d="M131.303 271.032V243.311L159.024 236.823V264.544L131.303 271.032ZM131.893 458V317.037L159.614 310.549V458H131.893Z" fill="#0B3256"/>
<path d="M0.693359 458V251.273H75.5987C81.6933 251.273 86.805 253.436 90.9336 257.761C95.0622 261.89 97.1266 266.805 97.1266 272.506V331.192C101.059 332.568 104.303 335.124 106.858 338.859C109.414 342.595 110.692 346.625 110.692 350.95V436.472C110.692 442.567 108.628 447.678 104.499 451.807C100.37 455.936 95.3571 458 89.4591 458H0.693359ZM28.4142 330.012H58.7892C61.7382 330.012 64.2941 328.931 66.4567 326.768C68.6193 324.606 69.7006 322.148 69.7006 319.396V289.316C69.7006 286.367 68.6193 283.909 66.4567 281.943C64.2941 279.78 61.7382 278.699 58.7892 278.699H28.4142V330.012ZM28.4142 430.574H72.9445C75.697 430.574 78.0562 429.591 80.0222 427.625C82.1848 425.462 83.2661 422.808 83.2661 419.663V367.76C83.2661 365.007 82.1848 362.55 80.0222 360.387C78.0562 358.225 75.697 357.143 72.9445 357.143H28.4142V430.574Z" fill="#0B3256"/>
<path d="M489.78 280.726C483.686 280.726 478.574 278.661 474.445 274.533C470.317 270.404 468.252 265.293 468.252 259.198V227.053L495.973 233.541V242.388C495.973 245.141 497.055 247.598 499.217 249.761C501.38 251.924 503.837 253.005 506.59 253.005H513.078C515.83 253.005 518.288 251.924 520.45 249.761C522.613 247.598 523.694 245.141 523.694 242.388V207H489.78C483.686 207 478.574 204.936 474.445 200.807C470.317 196.678 468.252 191.567 468.252 185.472V59.5487H495.973V168.663C495.973 171.415 497.055 173.873 499.217 176.035C501.38 178.198 503.837 179.279 506.59 179.279H523.694V59.5487H551.415V259.198C551.415 265.293 549.351 270.404 545.222 274.533C541.093 278.661 536.08 280.726 530.182 280.726H489.78Z" fill="#0B3256"/>
<path d="M367.168 207V59.5487H428.802C434.7 59.5487 439.714 61.7113 443.842 66.0366C448.168 70.1652 450.33 75.1785 450.33 81.0766V113.221L422.609 107.028V98.181C422.609 95.2319 421.528 92.6761 419.365 90.5135C417.399 88.3509 414.942 87.2696 411.993 87.2696H394.888V207H367.168Z" fill="#0B3256"/>
<path d="M266.083 207V59.5487H327.717C333.615 59.5487 338.629 61.7113 342.757 66.0366C347.083 70.1652 349.245 75.1785 349.245 81.0766V113.221L321.524 107.028V98.181C321.524 95.2319 320.443 92.6761 318.281 90.5135C316.315 88.3509 313.857 87.2696 310.908 87.2696H293.804V207H266.083Z" fill="#0B3256"/>
<path d="M189.694 207C183.796 207 178.684 204.936 174.359 200.807C170.23 196.482 168.166 191.37 168.166 185.472V80.7817C168.166 74.8836 170.23 69.8703 174.359 65.7417C178.684 61.613 183.796 59.5487 189.694 59.5487H229.801C235.895 59.5487 241.007 61.613 245.135 65.7417C249.264 69.8703 251.328 74.8836 251.328 80.7817V125.607C251.328 131.505 249.264 136.617 245.135 140.942C241.007 145.071 235.895 147.135 229.801 147.135H195.887V168.663C195.887 171.612 196.87 174.168 198.836 176.33C200.998 178.296 203.652 179.279 206.798 179.279H245.135L251.328 207H189.694ZM195.887 119.414H212.991C215.94 119.414 218.398 118.431 220.364 116.465C222.526 114.302 223.608 111.746 223.608 108.797V97.8861C223.608 94.937 222.526 92.4795 220.364 90.5135C218.398 88.3509 215.94 87.2696 212.991 87.2696H206.798C203.652 87.2696 200.998 88.3509 198.836 90.5135C196.87 92.4795 195.887 94.937 195.887 97.8861V119.414Z" fill="#0B3256"/>
<path d="M1.28317 207V0.568115H28.7091L69.7006 126.492L110.692 0.568115H138.118V207H110.692V84.3205L83.2661 168.368H56.1351L28.7091 84.3205V207H1.28317Z" fill="#0B3256"/>
</svg>
