<svg width="110" height="208" viewBox="0 0 110 208" fill="none" xmlns="http://www.w3.org/2000/svg">
<path d="M0 207.432V0.705078H74.9053C81 0.705078 86.1116 2.86772 90.2402 7.19296C94.3689 11.3216 96.4332 16.2366 96.4332 21.9381V80.6237C100.365 82 103.609 84.5558 106.165 88.2912C108.721 92.0266 109.999 96.057 109.999 100.382V185.904C109.999 191.999 107.934 197.11 103.806 201.239C99.6771 205.368 94.6638 207.432 88.7657 207.432H0ZM27.7209 79.4441H58.0958C61.0449 79.4441 63.6007 78.3628 65.7633 76.2002C67.9259 74.0376 69.0072 71.58 69.0072 68.8276V38.7475C69.0072 35.7985 67.9259 33.341 65.7633 31.375C63.6007 29.2123 61.0449 28.131 58.0958 28.131H27.7209V79.4441ZM27.7209 180.006H72.2512C75.0036 180.006 77.3628 179.023 79.3288 177.057C81.4915 174.894 82.5728 172.24 82.5728 169.095V117.192C82.5728 114.439 81.4915 111.982 79.3288 109.819C77.3628 107.656 75.0036 106.575 72.2512 106.575H27.7209V180.006Z" fill="#DFDFDF"/>
</svg>
