<svg width="84" height="149" viewBox="0 0 84 149" fill="none" xmlns="http://www.w3.org/2000/svg">
<path d="M22.0004 148.432C16.1024 148.432 10.9907 146.368 6.6655 142.239C2.53686 137.914 0.472534 132.802 0.472534 126.904V22.2136C0.472534 16.3155 2.53686 11.3022 6.6655 7.17354C10.9907 3.04491 16.1024 0.980591 22.0004 0.980591H62.1072C68.2019 0.980591 73.3135 3.04491 77.4422 7.17354C81.5708 11.3022 83.6351 16.3155 83.6351 22.2136V67.0388C83.6351 72.9369 81.5708 78.0485 77.4422 82.3737C73.3135 86.5024 68.2019 88.5667 62.1072 88.5667H28.1934V110.095C28.1934 113.044 29.1764 115.599 31.1424 117.762C33.305 119.728 35.9592 120.711 39.1048 120.711H77.4422L83.6351 148.432H22.0004ZM28.1934 60.8458H45.2977C48.2468 60.8458 50.7043 59.8628 52.6703 57.8968C54.8329 55.7342 55.9142 53.1784 55.9142 50.2293V39.3179C55.9142 36.3689 54.8329 33.9114 52.6703 31.9454C50.7043 29.7828 48.2468 28.7014 45.2977 28.7014H39.1048C35.9592 28.7014 33.305 29.7828 31.1424 31.9454C29.1764 33.9114 28.1934 36.3689 28.1934 39.3179V60.8458Z" fill="#DFDFDF"/>
</svg>
