<svg width="84" height="149" viewBox="0 0 84 149" fill="none" xmlns="http://www.w3.org/2000/svg">
<path d="M21.6857 148.432C15.5911 148.432 10.4794 146.368 6.3508 142.239C2.22216 137.914 0.157837 132.802 0.157837 126.904V22.5085C0.157837 16.6104 2.22216 11.5971 6.3508 7.46844C10.4794 3.14321 15.5911 0.980591 21.6857 0.980591H61.7925C67.6906 0.980591 72.7039 3.14321 76.8326 7.46844C81.1578 11.5971 83.3204 16.6104 83.3204 22.5085V54.6529H55.5995V39.3179C55.5995 36.3689 54.5182 33.9114 52.3556 31.9454C50.193 29.7828 47.6372 28.7014 44.6881 28.7014H38.4952C35.5462 28.7014 32.9903 29.7828 30.8277 31.9454C28.8617 33.9114 27.8787 36.3689 27.8787 39.3179V110.095C27.8787 113.044 28.8617 115.599 30.8277 117.762C32.9903 119.728 35.5462 120.711 38.4952 120.711H44.6881C47.6372 120.711 50.193 119.728 52.3556 117.762C54.5182 115.599 55.5995 113.044 55.5995 110.095V94.7596H83.3204V126.904C83.3204 132.802 81.1578 137.914 76.8326 142.239C72.7039 146.368 67.6906 148.432 61.7925 148.432H21.6857Z" fill="#DFDFDF"/>
</svg>
