<svg width="84" height="149" viewBox="0 0 84 149" fill="none" xmlns="http://www.w3.org/2000/svg">
<path d="M21.9619 148.432C15.8672 148.432 10.7556 146.368 6.62692 142.239C2.49828 137.914 0.43396 132.802 0.43396 126.904V22.5085C0.43396 16.6104 2.49828 11.5971 6.62692 7.46844C10.7556 3.14321 15.8672 0.980591 21.9619 0.980591H62.0686C67.9667 0.980591 72.98 3.14321 77.1087 7.46844C81.2373 11.5971 83.3016 16.6104 83.3016 22.5085V126.904C83.3016 132.802 81.2373 137.914 77.1087 142.239C72.98 146.368 67.9667 148.432 62.0686 148.432H21.9619ZM38.7713 120.711H44.9643C47.9133 120.711 50.4691 119.728 52.6317 117.762C54.7944 115.599 55.8757 113.044 55.8757 110.095V39.3179C55.8757 36.3689 54.7944 33.9114 52.6317 31.9454C50.4691 29.7828 47.9133 28.7014 44.9643 28.7014H38.7713C35.8223 28.7014 33.2665 29.7828 31.1039 31.9454C29.1378 33.9114 28.1548 36.3689 28.1548 39.3179V110.095C28.1548 113.044 29.1378 115.599 31.1039 117.762C33.2665 119.728 35.8223 120.711 38.7713 120.711Z" fill="#DFDFDF"/>
</svg>
