<svg width="84" height="223" viewBox="0 0 84 223" fill="none" xmlns="http://www.w3.org/2000/svg">
<path d="M22.087 222.158C15.9923 222.158 10.8807 220.093 6.75204 215.965C2.62341 211.836 0.559082 206.724 0.559082 200.63V168.485L28.28 174.973V183.82C28.28 186.573 29.3612 189.03 31.5239 191.193C33.6865 193.355 36.144 194.437 38.8964 194.437H45.3843C48.1367 194.437 50.5943 193.355 52.7569 191.193C54.9195 189.03 56.0008 186.573 56.0008 183.82V148.432H22.087C15.9923 148.432 10.8807 146.368 6.75204 142.239C2.62341 138.11 0.559082 132.999 0.559082 126.904V0.980591H28.28V110.095C28.28 112.847 29.3612 115.305 31.5239 117.467C33.6865 119.63 36.144 120.711 38.8964 120.711H56.0008V0.980591H83.7217V200.63C83.7217 206.724 81.6573 211.836 77.5287 215.965C73.4 220.093 68.3867 222.158 62.4886 222.158H22.087Z" fill="#DFDFDF"/>
</svg>
